<?xml version="1.0" encoding="utf-8"?>
<!-- Generator: Adobe Illustrator 23.0.0, SVG Export Plug-In . SVG Version: 6.00 Build 0)  -->
<svg version="1.1" id="Layer_2" xmlns="http://www.w3.org/2000/svg" xmlns:xlink="http://www.w3.org/1999/xlink" x="0px" y="0px"
	 viewBox="0 0 600 600" style="enable-background:new 0 0 600 600;" xml:space="preserve">
<style type="text/css">
	.st0{fill:#008CFF;}
	.st1{fill:#FFFFFF;}
</style>
<path d="M479.96,532.91h-66.38c-5.79,0-10.48-4.69-10.48-10.48V77.64c0-5.79,4.69-10.48,10.48-10.48h66.38
	c9.24,0,16.74,7.49,16.74,16.74v432.28C496.7,525.42,489.21,532.91,479.96,532.91z"/>
<path d="M550,128.14V96.47c0-21.44-17.45-38.89-38.9-38.89H139.38c-22.96,0-41.65,18.68-41.65,41.65v67.81h7.65
	c-4.8,6.79-7.65,15.05-7.65,23.98v67.81H112c-8.72,7.64-14.27,18.82-14.27,31.3v67.81h8c-5.01,6.87-8,15.3-8,24.44v50.6v17.21v50.6
	c0,22.97,18.68,41.65,41.65,41.65H511.1c21.44,0,38.9-17.45,38.9-38.89v-31.67c0-12.24-5.69-23.16-14.55-30.29
	c8.86-7.13,14.55-18.05,14.55-30.29v-31.67c0-12.24-5.69-23.16-14.55-30.29c8.86-7.13,14.55-18.05,14.55-30.29v-31.67
	c0-14.42-7.91-27.01-19.6-33.72c11.69-6.72,19.6-19.3,19.6-33.72v-31.67c0-12.1-5.56-22.92-14.25-30.06
	C544.44,151.06,550,140.24,550,128.14z M532.79,471.86v31.67c0,11.95-9.73,21.68-21.69,21.68H139.38
	c-13.47,0-24.44-10.96-24.44-24.44v-50.6H511.1C523.06,450.17,532.79,459.9,532.79,471.86z M532.79,379.62v31.67
	c0,11.95-9.73,21.68-21.69,21.68H114.94v-50.6c0-13.48,10.96-24.44,24.44-24.44H511.1C523.06,357.93,532.79,367.66,532.79,379.62z
	 M532.79,319.04c0,11.95-9.73,21.68-21.69,21.68H139.38h-24.44v-50.6c0-13.48,10.96-24.44,24.44-24.44H511.1
	c11.95,0,21.69,9.73,21.69,21.69V319.04z M532.79,188.26v31.67c0,11.96-9.73,21.69-21.69,21.69H114.94v-50.6
	c0-11.92,8.59-21.84,19.9-23.98H511.1c1.02,0,2.02-0.08,3.02-0.15C524.64,168.37,532.79,177.34,532.79,188.26z M511.1,149.37H139.38
	c-1.99,0-3.93,0.19-5.85,0.46h-18.59v-50.6c0-13.47,10.96-24.44,24.44-24.44H511.1c11.95,0,21.69,9.73,21.69,21.68v31.67
	c0,10.92-8.15,19.89-18.66,21.38C513.13,149.44,512.13,149.37,511.1,149.37z"/>
<path class="st0" d="M468.03,532.91H117.98c-8.27,0-14.97-6.7-14.97-14.97V81.15c0-8.27,6.7-14.97,14.97-14.97h350.05
	c8.27,0,14.97,6.7,14.97,14.97v436.79C483,526.21,476.3,532.91,468.03,532.91z"/>
<path d="M445.82,541.52H140.18c-25.24,0-45.78-20.53-45.78-45.78V103.36c0-25.24,20.54-45.78,45.78-45.78h305.64
	c25.24,0,45.78,20.53,45.78,45.78v392.38C491.6,520.98,471.07,541.52,445.82,541.52z M140.18,74.79
	c-15.75,0-28.57,12.81-28.57,28.57v392.38c0,15.75,12.82,28.57,28.57,28.57h305.64c15.75,0,28.57-12.81,28.57-28.57V103.36
	c0-15.75-12.82-28.57-28.57-28.57H140.18z"/>
<path class="st1" d="M320.44,286.4c14.58-10.26,23.23-28.41,19.56-48.22c-3.76-20.24-20.88-36.06-41.33-38.42
	c-28.9-3.34-53.51,19.27-53.51,47.51c0,16.17,8.08,30.47,20.4,39.13c-38.85,11.79-67.21,47.92-67.21,90.57v1.39
	c0,3.98,3.23,7.21,7.21,7.21h49.81c4.75,0,8.6-3.85,8.6-8.6c0-4.75-3.85-8.6-8.6-8.6h-39.33c3.98-35.84,32.53-64.33,68.36-68.32
	v23.52c0,4.75,3.85,8.6,8.6,8.6c4.75,0,8.6-3.85,8.6-8.6v-23.52c35.83,3.99,64.39,32.48,68.36,68.32h-36.24
	c-4.75,0-8.6,3.85-8.6,8.6c0,4.75,3.85,8.6,8.6,8.6h46.71c3.98,0,7.21-3.23,7.21-7.21v-1.39
	C387.66,334.31,359.29,298.19,320.44,286.4z M285.98,217.42c22.31-4.99,41.86,14.56,36.87,36.87
	c-2.51,11.24-11.59,20.32-22.83,22.83c-22.3,4.98-41.84-14.55-36.86-36.86C265.66,229.01,274.73,219.93,285.98,217.42z"/>
<circle class="st1" cx="293" cy="376.96" r="9.29"/>
<g>
	<path d="M124.69,184.24H81.32c-17.27,0-31.32-14.05-31.32-31.32s14.05-31.32,31.32-31.32h43.37c17.27,0,31.32,14.05,31.32,31.32
		S141.96,184.24,124.69,184.24z M81.32,138.81c-7.78,0-14.11,6.33-14.11,14.11s6.33,14.11,14.11,14.11h43.37
		c7.78,0,14.11-6.33,14.11-14.11s-6.33-14.11-14.11-14.11H81.32z"/>
</g>
<g>
	<path d="M124.69,283.31H81.32c-17.27,0-31.32-14.05-31.32-31.32s14.05-31.32,31.32-31.32h43.37c17.27,0,31.32,14.05,31.32,31.32
		S141.96,283.31,124.69,283.31z M81.32,237.87c-7.78,0-14.11,6.33-14.11,14.11c0,7.78,6.33,14.11,14.11,14.11h43.37
		c7.78,0,14.11-6.33,14.11-14.11c0-7.78-6.33-14.11-14.11-14.11H81.32z"/>
</g>
<g>
	<path d="M124.69,382.37H81.32c-17.27,0-31.32-14.05-31.32-31.32c0-17.27,14.05-31.32,31.32-31.32h43.37
		c17.27,0,31.32,14.05,31.32,31.32C156.01,368.32,141.96,382.37,124.69,382.37z M81.32,336.94c-7.78,0-14.11,6.33-14.11,14.11
		c0,7.78,6.33,14.11,14.11,14.11h43.37c7.78,0,14.11-6.33,14.11-14.11c0-7.78-6.33-14.11-14.11-14.11H81.32z"/>
</g>
<g>
	<path d="M124.69,481.43H81.32c-17.27,0-31.32-14.05-31.32-31.32s14.05-31.32,31.32-31.32h43.37c17.27,0,31.32,14.05,31.32,31.32
		S141.96,481.43,124.69,481.43z M81.32,436c-7.78,0-14.11,6.33-14.11,14.11s6.33,14.11,14.11,14.11h43.37
		c7.78,0,14.11-6.33,14.11-14.11S132.47,436,124.69,436H81.32z"/>
</g>
</svg>
